<?xml version="1.0" encoding="UTF-8"?>
<!DOCTYPE svg PUBLIC '-//W3C//DTD SVG 1.1//EN' 'http://www.w3.org/Graphics/SVG/1.1/DTD/svg11.dtd'>
<svg viewBox="0 0 113.38 72.45" xmlns="http://www.w3.org/2000/svg">
 <clipPath id="a">
  <path d="m496.29 36.09h85.04v54.34h-85.04z"/>
 </clipPath>
 <g transform="matrix(1.333 0 0 -1.333 -661.71 120.56)" clip-path="url(#a)">
  <g fill="#143e6f">
   <path transform="translate(530.4 74.38)" d="m0 0c-.68 0-1.2-.55-1.24-1.24v-19.77c0-.68.56-1.2 1.24-1.24.68 0 1.2.55 1.24 1.24l0 19.77c0 .68-.55 1.2-1.24 1.24"/>
   <path transform="translate(513.58 74.38)" d="m0 0h-1.24l0-22.24h1.24c.68 0 1.2.55 1.24 1.24l0 19.77c0 .68-.55 1.2-1.24 1.24"/>
   <path transform="translate(547.22 74.38)" d="m0 0h-1.24v-10.13h1.24c.68 0 1.2.55 1.24 1.24l0 7.66c0 .68-.55 1.2-1.24 1.24"/>
   <path transform="translate(570.48 63.5)" d="m0 0c0-1.2-1-2.2-2.23-2.23 1.2 0 2.2-1 2.23-2.23v-12.11h-5.2v10.13c0 .68-.55 1.2-1.24 1.24h-1.24v-11.37h-5.2v32.63h9.15c2.1 0 3.7-1.7 3.71-3.71zm-16.82 0c0-1.2-1-2.2-2.23-2.23 1.2 0 2.2-1 2.23-2.23v-12.11h-5.2v10.13c0 .68-.55 1.2-1.24 1.24h-1.24v-11.37h-5.2v32.63h9.15c2 0 3.7-1.7 3.71-3.71zm-16.82-12.85c0-2-1.7-3.7-3.71-3.71h-5.44c-2 0-3.7 1.7-3.71 3.71v25.21c0 2 1.7 3.7 3.71 3.71h5.45c2 0 3.7-1.7 3.71-3.71zm-16.82 0c0-2-1.7-3.7-3.71-3.71h-3.96v-3.22h-5.2v35.85h9.16c2 0 3.7-1.7 3.71-3.71zm54.53 39.78h-78.25l0-47.55c0-3.7 3-6.8 6.79-6.79h78.25v47.55c0 3.7-3 6.8-6.79 6.79"/>
  </g>
  <path transform="translate(568.25 61.28)" d="m0 0c1.2 0 2.2 1 2.23 2.23v12.36c0 2-1.7 3.7-3.71 3.71h-9.15v-32.63h5.2v11.37h1.24c.68 0 1.2-.55 1.24-1.24v-10.13h5.2v12.11c0 1.2-1 2.2-2.23 2.23m-2.97 4.21c0-.68-.56-1.2-1.24-1.24h-1.24v10.13h1.24c.68 0 1.2-.55 1.24-1.24zm-16.83-18.54h5.2v12.11c0 1.2-1 2.2-2.23 2.23 1.2 0 2.2 1 2.23 2.23v12.36c0 2-1.7 3.7-3.71 3.71h-9.15v-32.63h5.2v11.37h1.24c.68 0 1.2-.55 1.24-1.24zm0 18.54c0-.68-.56-1.2-1.24-1.24h-1.24v10.13h1.24c.68 0 1.2-.55 1.24-1.24zm-11.63-14.83v25.21c0 2-1.7 3.7-3.71 3.71h-5.45c-2 0-3.7-1.7-3.71-3.71v-25.21c0-2 1.7-3.7 3.71-3.71h5.44c2 0 3.7 1.7 3.71 3.71m-5.19 2.72c0-.68-.55-1.2-1.24-1.24-.68 0-1.2.55-1.24 1.24v19.77c0 .68.55 1.2 1.24 1.24.68 0 1.2-.55 1.24-1.24zm-11.63-2.72v25.21c0 2-1.7 3.7-3.71 3.71h-9.16v-35.85h5.2v3.22h3.96c2.1 0 3.7 1.7 3.71 3.71m-5.19 2.72c0-.68-.55-1.2-1.24-1.24h-1.24l0 22.24h1.24c.68 0 1.2-.55 1.24-1.24z" fill="#ffed00"/>
  <path transform="translate(564.05 74.38)" d="m0 0h-1.24v-10.13h1.24c.68 0 1.2.55 1.24 1.24l0 7.66c0 .68-.55 1.2-1.24 1.24" fill="#143e6f"/>
 </g>
</svg>
